<mxfile host="Electron" agent="Mozilla/5.0 (Macintosh; Intel Mac OS X 10_15_7) AppleWebKit/537.36 (KHTML, like Gecko) draw.io/27.0.5 Chrome/134.0.6998.205 Electron/35.3.0 Safari/537.36" version="27.0.5">
  <diagram name="datacontractcli-v2" id="tp5WBm8LkCMx9FwTQ9-I">
    <mxGraphModel dx="2215" dy="773" grid="1" gridSize="10" guides="1" tooltips="1" connect="1" arrows="1" fold="1" page="1" pageScale="1" pageWidth="850" pageHeight="1100" math="0" shadow="0">
      <root>
        <mxCell id="AiJdHj6Q9A8rBBn62U_L-0" />
        <mxCell id="AiJdHj6Q9A8rBBn62U_L-1" parent="AiJdHj6Q9A8rBBn62U_L-0" />
        <mxCell id="t2mjKf7Wqyq2umgK_dD0-0" value="" style="rounded=0;whiteSpace=wrap;html=1;strokeColor=none;fontStyle=1" vertex="1" parent="AiJdHj6Q9A8rBBn62U_L-1">
          <mxGeometry x="-785" y="40" width="655" height="450" as="geometry" />
        </mxCell>
        <mxCell id="t2mjKf7Wqyq2umgK_dD0-203" value="" style="rounded=0;whiteSpace=wrap;html=1;sketch=1;curveFitting=1;jiggle=2;fillColor=#dae8fc;strokeColor=#6c8ebf;opacity=50;" vertex="1" parent="AiJdHj6Q9A8rBBn62U_L-1">
          <mxGeometry x="-757" y="199.38" width="250" height="110.62" as="geometry" />
        </mxCell>
        <mxCell id="t2mjKf7Wqyq2umgK_dD0-87" value="" style="rounded=1;whiteSpace=wrap;html=1;fontFamily=Courier New;fontSize=14;" vertex="1" parent="AiJdHj6Q9A8rBBn62U_L-1">
          <mxGeometry x="-735.44" y="230" width="48" height="50" as="geometry" />
        </mxCell>
        <mxCell id="t2mjKf7Wqyq2umgK_dD0-88" value="&lt;font style=&quot;font-size: 8px;&quot; data-font-src=&quot;https://fonts.googleapis.com/css?family=Architects+Daughter&quot; face=&quot;Architects Daughter&quot;&gt;MCP-Client&lt;/font&gt;" style="text;html=1;strokeColor=none;fillColor=none;align=center;verticalAlign=middle;whiteSpace=wrap;rounded=0;fontFamily=Courier New;fontSize=8;" vertex="1" parent="AiJdHj6Q9A8rBBn62U_L-1">
          <mxGeometry x="-734.94" y="261" width="50" height="13" as="geometry" />
        </mxCell>
        <mxCell id="t2mjKf7Wqyq2umgK_dD0-89" value="" style="shape=image;verticalLabelPosition=bottom;labelBackgroundColor=default;verticalAlign=top;aspect=fixed;imageAspect=0;image=data:image/svg+xml,PHN2ZyB4bWxucz0iaHR0cDovL3d3dy53My5vcmcvMjAwMC9zdmciIHZpZXdCb3g9IjAgNCAyNCAxNiIgd2lkdGg9IjI0IiBoZWlnaHQ9IjE2Ij48cGF0aCBkPSJNNCw2SDIwVjE2SDRNMjAsMThBMiwyIDAgMCwwIDIyLDE2VjZDMjIsNC44OSAyMS4xLDQgMjAsNEg0QzIuODksNCAyLDQuODkgMiw2VjE2QTIsMiAwIDAsMCA0LDE4SDBWMjBIMjRWMThIMjBaIi8+PC9zdmc+;" vertex="1" parent="AiJdHj6Q9A8rBBn62U_L-1">
          <mxGeometry x="-723.44" y="237" width="24" height="16" as="geometry" />
        </mxCell>
        <mxCell id="t2mjKf7Wqyq2umgK_dD0-157" value="Data Product&amp;nbsp;&lt;div&gt;MCP Server&lt;/div&gt;" style="text;html=1;strokeColor=none;fillColor=none;align=center;verticalAlign=middle;whiteSpace=wrap;rounded=0;fontStyle=1;fontSize=23;fontFamily=Architects Daughter;fontSource=https%3A%2F%2Ffonts.googleapis.com%2Fcss%3Ffamily%3DArchitects%2BDaughter;" vertex="1" parent="AiJdHj6Q9A8rBBn62U_L-1">
          <mxGeometry x="-734.5" y="80" width="205" height="30" as="geometry" />
        </mxCell>
        <mxCell id="t2mjKf7Wqyq2umgK_dD0-158" value="&lt;span style=&quot;font-size: 11px;&quot;&gt;asset sources&lt;/span&gt;" style="edgeLabel;html=1;align=center;verticalAlign=middle;resizable=0;points=[];fontFamily=Architects Daughter;fontSource=https%3A%2F%2Ffonts.googleapis.com%2Fcss%3Ffamily%3DArchitects%2BDaughter;fontSize=11;fontColor=#D79B00;" vertex="1" connectable="0" parent="AiJdHj6Q9A8rBBn62U_L-1">
          <mxGeometry x="-238.4428571428574" y="230" as="geometry" />
        </mxCell>
        <mxCell id="t2mjKf7Wqyq2umgK_dD0-159" value="&lt;span style=&quot;font-size: 11px;&quot;&gt;data sources&lt;/span&gt;" style="edgeLabel;html=1;align=center;verticalAlign=middle;resizable=0;points=[];fontFamily=Architects Daughter;fontSource=https%3A%2F%2Ffonts.googleapis.com%2Fcss%3Ffamily%3DArchitects%2BDaughter;fontSize=11;fontColor=#F8CECC;" vertex="1" connectable="0" parent="AiJdHj6Q9A8rBBn62U_L-1">
          <mxGeometry x="-307.76285714285734" y="472" as="geometry">
            <mxPoint x="-2" y="-2" as="offset" />
          </mxGeometry>
        </mxCell>
        <mxCell id="t2mjKf7Wqyq2umgK_dD0-161" value="" style="rounded=1;whiteSpace=wrap;html=1;fontFamily=Courier New;fontSize=14;" vertex="1" parent="AiJdHj6Q9A8rBBn62U_L-1">
          <mxGeometry x="-576" y="230" width="48" height="50" as="geometry" />
        </mxCell>
        <mxCell id="t2mjKf7Wqyq2umgK_dD0-162" value="&lt;font face=&quot;Architects Daughter&quot;&gt;DP MCP Server&lt;/font&gt;" style="text;html=1;strokeColor=none;fillColor=none;align=center;verticalAlign=middle;whiteSpace=wrap;rounded=0;fontFamily=Courier New;fontSize=8;" vertex="1" parent="AiJdHj6Q9A8rBBn62U_L-1">
          <mxGeometry x="-577" y="263.14" width="50" height="13" as="geometry" />
        </mxCell>
        <mxCell id="t2mjKf7Wqyq2umgK_dD0-164" value="" style="shape=image;verticalLabelPosition=bottom;labelBackgroundColor=default;verticalAlign=top;aspect=fixed;imageAspect=0;image=data:image/svg+xml,PHN2ZyB4bWxucz0iaHR0cDovL3d3dy53My5vcmcvMjAwMC9zdmciIHZpZXdCb3g9IjIgMyAyMC4xMDAwMDAzODE0Njk3MjcgMTgiIHdpZHRoPSIyMC4xMDAwMDAzODE0Njk3MjciIGhlaWdodD0iMTgiPjxwYXRoIGQ9Ik0yIDQuNlY5LjRDMiAxMC4zIDIuNSAxMSAzLjIgMTFIMjAuOUMyMS41IDExIDIyLjEgMTAuMyAyMi4xIDkuNFY0LjZDMjIgMy43IDIxLjUgMyAyMC44IDNIMy4yQzIuNSAzIDIgMy43IDIgNC42TTEwIDhWNkg5VjhIMTBNNSA4SDdWNkg1VjhNMjAgOUg0VjVIMjBWOU0yIDE0LjZWMTkuNEMyIDIwLjMgMi41IDIxIDMuMiAyMUgyMC45QzIxLjUgMjEgMjIuMSAyMC4zIDIyLjEgMTkuNFYxNC42QzIyLjEgMTMuNyAyMS42IDEzIDIwLjkgMTNIMy4yQzIuNSAxMyAyIDEzLjcgMiAxNC42TTEwIDE4VjE2SDlWMThIMTBNNSAxOEg3VjE2SDVWMThNMjAgMTlINFYxNUgyMFYxOVoiLz48L3N2Zz4=;" vertex="1" parent="AiJdHj6Q9A8rBBn62U_L-1">
          <mxGeometry x="-563.69" y="234.60000000000002" width="24" height="21.33" as="geometry" />
        </mxCell>
        <mxCell id="t2mjKf7Wqyq2umgK_dD0-170" value="" style="endArrow=classic;html=1;rounded=0;" edge="1" parent="AiJdHj6Q9A8rBBn62U_L-1">
          <mxGeometry width="50" height="50" relative="1" as="geometry">
            <mxPoint x="-655.99" y="264.26" as="sourcePoint" />
            <mxPoint x="-613.99" y="264.26" as="targetPoint" />
          </mxGeometry>
        </mxCell>
        <mxCell id="t2mjKf7Wqyq2umgK_dD0-171" value="Data requests&lt;br&gt;(from LLM)" style="edgeLabel;html=1;align=center;verticalAlign=middle;resizable=0;points=[];fontFamily=Architects Daughter;fontSource=https%3A%2F%2Ffonts.googleapis.com%2Fcss%3Ffamily%3DArchitects%2BDaughter;fontSize=9;" vertex="1" connectable="0" parent="t2mjKf7Wqyq2umgK_dD0-170">
          <mxGeometry x="-0.475" y="1" relative="1" as="geometry">
            <mxPoint x="9" y="20" as="offset" />
          </mxGeometry>
        </mxCell>
        <mxCell id="t2mjKf7Wqyq2umgK_dD0-173" value="" style="endArrow=classic;html=1;rounded=0;" edge="1" parent="AiJdHj6Q9A8rBBn62U_L-1">
          <mxGeometry width="50" height="50" relative="1" as="geometry">
            <mxPoint x="-613.99" y="247.76" as="sourcePoint" />
            <mxPoint x="-655.99" y="247.76" as="targetPoint" />
          </mxGeometry>
        </mxCell>
        <mxCell id="t2mjKf7Wqyq2umgK_dD0-174" value="Data responses&lt;br&gt;(for LLM)" style="edgeLabel;html=1;align=center;verticalAlign=middle;resizable=0;points=[];fontFamily=Architects Daughter;fontSource=https%3A%2F%2Ffonts.googleapis.com%2Fcss%3Ffamily%3DArchitects%2BDaughter;fontSize=9;" vertex="1" connectable="0" parent="t2mjKf7Wqyq2umgK_dD0-173">
          <mxGeometry x="-0.475" y="1" relative="1" as="geometry">
            <mxPoint x="-9" y="-19" as="offset" />
          </mxGeometry>
        </mxCell>
        <mxCell id="t2mjKf7Wqyq2umgK_dD0-180" value="&lt;span&gt;e.g. Claude Desktop&lt;/span&gt;" style="edgeLabel;html=1;align=center;verticalAlign=middle;resizable=0;points=[];fontFamily=Architects Daughter;fontSource=https%3A%2F%2Ffonts.googleapis.com%2Fcss%3Ffamily%3DArchitects%2BDaughter;fontSize=8;" vertex="1" connectable="0" parent="AiJdHj6Q9A8rBBn62U_L-1">
          <mxGeometry x="-711.4428571428573" y="290" as="geometry" />
        </mxCell>
        <mxCell id="t2mjKf7Wqyq2umgK_dD0-204" value="&lt;span style=&quot;font-size: 11px;&quot;&gt;local computer&lt;/span&gt;" style="edgeLabel;html=1;align=center;verticalAlign=middle;resizable=0;points=[];fontFamily=Architects Daughter;fontSource=https%3A%2F%2Ffonts.googleapis.com%2Fcss%3Ffamily%3DArchitects%2BDaughter;fontSize=11;labelBackgroundColor=none;fontColor=#6C8EBF;textOpacity=50;" vertex="1" connectable="0" parent="AiJdHj6Q9A8rBBn62U_L-1">
          <mxGeometry x="-632.0028571428574" y="323" as="geometry">
            <mxPoint x="-2" y="-2" as="offset" />
          </mxGeometry>
        </mxCell>
        <mxCell id="t2mjKf7Wqyq2umgK_dD0-207" value="" style="rounded=0;whiteSpace=wrap;html=1;sketch=1;curveFitting=1;jiggle=2;fillColor=#f8cecc;strokeColor=#b85450;opacity=50;" vertex="1" parent="AiJdHj6Q9A8rBBn62U_L-1">
          <mxGeometry x="-318.5" y="280" width="160" height="150" as="geometry" />
        </mxCell>
        <mxCell id="t2mjKf7Wqyq2umgK_dD0-93" value="" style="rounded=1;whiteSpace=wrap;html=1;fontFamily=Courier New;fontSize=14;" vertex="1" parent="AiJdHj6Q9A8rBBn62U_L-1">
          <mxGeometry x="-288.5" y="302.38" width="48" height="50" as="geometry" />
        </mxCell>
        <mxCell id="t2mjKf7Wqyq2umgK_dD0-94" value="&lt;font face=&quot;Architects Daughter&quot;&gt;databricks&lt;/font&gt;" style="text;html=1;strokeColor=none;fillColor=none;align=center;verticalAlign=middle;whiteSpace=wrap;rounded=0;fontFamily=Courier New;fontSize=8;" vertex="1" parent="AiJdHj6Q9A8rBBn62U_L-1">
          <mxGeometry x="-289.5" y="335.52" width="50" height="13" as="geometry" />
        </mxCell>
        <mxCell id="t2mjKf7Wqyq2umgK_dD0-96" value="" style="rounded=1;whiteSpace=wrap;html=1;fontFamily=Courier New;fontSize=14;" vertex="1" parent="AiJdHj6Q9A8rBBn62U_L-1">
          <mxGeometry x="-288.5" y="358.38" width="48" height="50" as="geometry" />
        </mxCell>
        <mxCell id="t2mjKf7Wqyq2umgK_dD0-97" value="&lt;font face=&quot;Architects Daughter&quot;&gt;Local Databases&lt;/font&gt;" style="text;html=1;strokeColor=none;fillColor=none;align=center;verticalAlign=middle;whiteSpace=wrap;rounded=0;fontFamily=Courier New;fontSize=8;" vertex="1" parent="AiJdHj6Q9A8rBBn62U_L-1">
          <mxGeometry x="-289.5" y="391.52" width="50" height="13" as="geometry" />
        </mxCell>
        <mxCell id="t2mjKf7Wqyq2umgK_dD0-98" value="" style="shape=image;verticalLabelPosition=bottom;labelBackgroundColor=default;verticalAlign=top;aspect=fixed;imageAspect=0;image=data:image/svg+xml,PHN2ZyB4bWxucz0iaHR0cDovL3d3dy53My5vcmcvMjAwMC9zdmciIHZpZXdCb3g9IjQgMyAxNiAxOCIgd2lkdGg9IjE2IiBoZWlnaHQ9IjE4Ij48cGF0aCBkPSJNMTIgM0M3LjU4IDMgNCA0Ljc5IDQgN1YxN0M0IDE5LjIxIDcuNTkgMjEgMTIgMjFTMjAgMTkuMjEgMjAgMTdWN0MyMCA0Ljc5IDE2LjQyIDMgMTIgM00xOCAxN0MxOCAxNy41IDE1Ljg3IDE5IDEyIDE5UzYgMTcuNSA2IDE3VjE0Ljc3QzcuNjEgMTUuNTUgOS43MiAxNiAxMiAxNlMxNi4zOSAxNS41NSAxOCAxNC43N1YxN00xOCAxMi40NUMxNi43IDEzLjQgMTQuNDIgMTQgMTIgMTRDOS41OCAxNCA3LjMgMTMuNCA2IDEyLjQ1VjkuNjRDNy40NyAxMC40NyA5LjYxIDExIDEyIDExQzE0LjM5IDExIDE2LjUzIDEwLjQ3IDE4IDkuNjRWMTIuNDVNMTIgOUM4LjEzIDkgNiA3LjUgNiA3UzguMTMgNSAxMiA1QzE1Ljg3IDUgMTggNi41IDE4IDdTMTUuODcgOSAxMiA5WiIvPjwvc3ZnPg==;" vertex="1" parent="AiJdHj6Q9A8rBBn62U_L-1">
          <mxGeometry x="-274.28" y="363.38" width="21.33" height="24" as="geometry" />
        </mxCell>
        <mxCell id="t2mjKf7Wqyq2umgK_dD0-99" value="&lt;font style=&quot;font-size: 9px;&quot;&gt;via duckdb&lt;/font&gt;" style="edgeLabel;html=1;align=center;verticalAlign=middle;resizable=0;points=[];fontFamily=Architects Daughter;fontSource=https%3A%2F%2Ffonts.googleapis.com%2Fcss%3Ffamily%3DArchitects%2BDaughter;fontSize=11;" vertex="1" connectable="0" parent="AiJdHj6Q9A8rBBn62U_L-1">
          <mxGeometry x="-262.9976190476189" y="417.0000000000001" as="geometry">
            <mxPoint x="-2" y="1" as="offset" />
          </mxGeometry>
        </mxCell>
        <mxCell id="t2mjKf7Wqyq2umgK_dD0-106" value="" style="rounded=1;whiteSpace=wrap;html=1;fontFamily=Courier New;fontSize=14;" vertex="1" parent="AiJdHj6Q9A8rBBn62U_L-1">
          <mxGeometry x="-228.9999999999999" y="302.38" width="48" height="50" as="geometry" />
        </mxCell>
        <mxCell id="t2mjKf7Wqyq2umgK_dD0-107" value="&lt;font style=&quot;font-size: 8px;&quot; data-font-src=&quot;https://fonts.googleapis.com/css?family=Architects+Daughter&quot; face=&quot;Architects Daughter&quot;&gt;AWS S3&lt;/font&gt;" style="text;html=1;strokeColor=none;fillColor=none;align=center;verticalAlign=middle;whiteSpace=wrap;rounded=0;fontFamily=Courier New;fontSize=8;" vertex="1" parent="AiJdHj6Q9A8rBBn62U_L-1">
          <mxGeometry x="-230.9999999999999" y="335.38" width="50" height="13" as="geometry" />
        </mxCell>
        <mxCell id="t2mjKf7Wqyq2umgK_dD0-108" value="" style="shape=image;verticalLabelPosition=bottom;labelBackgroundColor=default;verticalAlign=top;aspect=fixed;imageAspect=0;image=https://upload.wikimedia.org/wikipedia/commons/thumb/9/93/Amazon_Web_Services_Logo.svg/512px-Amazon_Web_Services_Logo.svg.png;" vertex="1" parent="AiJdHj6Q9A8rBBn62U_L-1">
          <mxGeometry x="-220.99999999999997" y="312.52" width="32" height="19.19" as="geometry" />
        </mxCell>
        <mxCell id="t2mjKf7Wqyq2umgK_dD0-168" value="" style="rounded=1;whiteSpace=wrap;html=1;fontFamily=Courier New;fontSize=14;" vertex="1" parent="AiJdHj6Q9A8rBBn62U_L-1">
          <mxGeometry x="-229" y="358.38" width="48" height="50" as="geometry" />
        </mxCell>
        <mxCell id="t2mjKf7Wqyq2umgK_dD0-169" value="&lt;font face=&quot;Architects Daughter&quot;&gt;...&lt;/font&gt;" style="text;html=1;strokeColor=none;fillColor=none;align=center;verticalAlign=middle;whiteSpace=wrap;rounded=0;fontFamily=Courier New;fontSize=8;" vertex="1" parent="AiJdHj6Q9A8rBBn62U_L-1">
          <mxGeometry x="-230" y="391.52" width="50" height="13" as="geometry" />
        </mxCell>
        <mxCell id="t2mjKf7Wqyq2umgK_dD0-179" value="" style="shape=image;verticalLabelPosition=bottom;labelBackgroundColor=default;verticalAlign=top;aspect=fixed;imageAspect=0;image=https://upload.wikimedia.org/wikipedia/commons/thumb/6/63/Databricks_Logo.png/800px-Databricks_Logo.png;clipPath=inset(2.53% 35% 34.81% 31.67%);" vertex="1" parent="AiJdHj6Q9A8rBBn62U_L-1">
          <mxGeometry x="-277" y="310.24" width="24" height="23.76" as="geometry" />
        </mxCell>
        <mxCell id="t2mjKf7Wqyq2umgK_dD0-208" value="" style="rounded=0;whiteSpace=wrap;html=1;sketch=1;curveFitting=1;jiggle=2;fillColor=#ffe6cc;strokeColor=#d79b00;opacity=50;" vertex="1" parent="AiJdHj6Q9A8rBBn62U_L-1">
          <mxGeometry x="-318.5" y="68.38" width="160" height="150" as="geometry" />
        </mxCell>
        <mxCell id="t2mjKf7Wqyq2umgK_dD0-84" value="" style="rounded=1;whiteSpace=wrap;html=1;fontFamily=Courier New;fontSize=14;" vertex="1" parent="AiJdHj6Q9A8rBBn62U_L-1">
          <mxGeometry x="-287.5" y="88.38" width="48" height="50" as="geometry" />
        </mxCell>
        <mxCell id="t2mjKf7Wqyq2umgK_dD0-85" value="&lt;font face=&quot;Architects Daughter&quot;&gt;Data Mesh Manager&lt;/font&gt;" style="text;html=1;strokeColor=none;fillColor=none;align=center;verticalAlign=middle;whiteSpace=wrap;rounded=0;fontFamily=Courier New;fontSize=8;" vertex="1" parent="AiJdHj6Q9A8rBBn62U_L-1">
          <mxGeometry x="-288.5" y="121.51999999999998" width="50" height="13" as="geometry" />
        </mxCell>
        <mxCell id="t2mjKf7Wqyq2umgK_dD0-86" value="" style="shape=image;verticalLabelPosition=bottom;labelBackgroundColor=default;verticalAlign=top;aspect=fixed;imageAspect=0;image=data:image/svg+xml,PHN2ZyB4bWxuczp4bGluaz0iaHR0cDovL3d3dy53My5vcmcvMTk5OS94bGluayIgeG1sbnM9Imh0dHA6Ly93d3cudzMub3JnLzIwMDAvc3ZnIiBzdHlsZT0iZmlsbC1ydWxlOmV2ZW5vZGQ7Y2xpcC1ydWxlOmV2ZW5vZGQ7c3Ryb2tlLWxpbmVqb2luOnJvdW5kO3N0cm9rZS1taXRlcmxpbWl0OjI7IiB4bWw6c3BhY2U9InByZXNlcnZlIiB2ZXJzaW9uPSIxLjEiIHZpZXdCb3g9IjAgMC4wMDAwNDI0Mzg1MDcwODAwNzgxMjUgNTI5LjkwMDAyNDQxNDA2MjUgNTg2LjYzOTk1MzYxMzI4MTIiIGhlaWdodD0iNTg2LjYzOTk1MzYxMzI4MTIiIHdpZHRoPSI1MjkuOTAwMDI0NDE0MDYyNSI+JiN4YTsgICAgPHBhdGggc3R5bGU9ImZpbGw6dXJsKCNfTGluZWFyMSk7ZmlsbC1ydWxlOm5vbnplcm87IiBkPSJNNTA4LjUsMTE5Ljk0TDMwNy40LDMuODRDMjg4LjUsLTcuMDYgMjY0LjksNi41NCAyNjQuOSwyOC4zNEwyNjQuOSwxMzIuMTRMMzc2LjEsMTk2LjM0QzM4OS4zLDIwMy45NCAzOTcuNCwyMTcuOTQgMzk3LjQsMjMzLjE0TDM5Ny40LDUxNC40NEw1MDguNiw0NTAuMjRDNTIxLjgsNDQyLjY0IDUyOS45LDQyOC42NCA1MjkuOSw0MTMuNDRMNTI5LjksMTU2LjY0QzUyOS45LDE0MS40NCA1MjEuOCwxMjcuNDQgNTA4LjYsMTE5Ljg0TDUwOC41LDExOS45NFoiLz4mI3hhOyAgICA8cGF0aCBzdHlsZT0iZmlsbDp1cmwoI19MaW5lYXIyKTtmaWxsLXJ1bGU6bm9uemVybzsiIGQ9Ik0zNzYsMTk2LjQ0TDE3NC45LDgwLjM0QzE1Niw2OS40NCAxMzIuNCw4My4wNCAxMzIuNCwxMDQuODRMMTMyLjQsMjA4LjY0TDIwNiwyNTEuMTRMMjQzLjYsMjcyLjg0QzI0NS4yLDI3My43NCAyNDYuOCwyNzQuODQgMjQ4LjMsMjc1Ljk0QzI0OS44LDI3Ny4wNCAyNTEuMiwyNzguMzQgMjUyLjUsMjc5LjY0QzI2MC4zLDI4Ny41NCAyNjQuOSwyOTguMjQgMjY0LjksMzA5LjY0TDI2NC45LDU4Ni41NEMyNjkuOCw1ODYuNTQgMjc0LjcsNTg1LjI0IDI3OS4xLDU4Mi43NEwzOTcuNCw1MTQuNDRMMzk3LjQsMjMzLjE0QzM5Ny40LDIxNy45NCAzODkuMywyMDMuOTQgMzc2LjEsMTk2LjM0TDM3NiwxOTYuNDRaIi8+JiN4YTsgICAgPHBhdGggc3R5bGU9ImZpbGw6cmdiKDc3LDE1NSw1OCk7ZmlsbC1ydWxlOm5vbnplcm87IiBkPSJNMjYyLjksNTg2LjU0QzI2MS4zLDU4Ni40NCAyNTkuNiw1ODYuMTQgMjU4LDU4NS43NEMyNTkuNiw1ODYuMTQgMjYxLjIsNTg2LjQ0IDI2Mi45LDU4Ni41NFoiLz4mI3hhOyAgICA8cGF0aCBzdHlsZT0iZmlsbDp1cmwoI19MaW5lYXIzKTtmaWxsLXJ1bGU6bm9uemVybzsiIGQ9Ik0yNjQuOSwzMDkuNzRDMjY0LjksMjk4LjM0IDI2MC4zLDI4Ny42NCAyNTIuNSwyNzkuNzRDMjUxLjIsMjc4LjQ0IDI0OS44LDI3Ny4yNCAyNDguMywyNzYuMDRDMjQ2LjgsMjc0Ljg0IDI0NS4zLDI3My44NCAyNDMuNiwyNzIuOTRMMjA2LDI1MS4yNEw0Mi41LDE1Ni44NEMyMy42LDE0NS45NCAwLDE1OS41NCAwLDE4MS4zNEwwLDQxMy41NEMwLDQyOC43NCA4LjEsNDQyLjc0IDIxLjMsNDUwLjM0TDEzMi41LDUxNC41NEwyNTAuOCw1ODIuODRDMjU1LjIsNTg1LjM0IDI2MC4xLDU4Ni42NCAyNjUsNTg2LjY0TDI2NSwzMDkuNzRMMjY0LjksMzA5Ljc0WiIvPiYjeGE7ICAgIDxkZWZzPiYjeGE7ICAgICAgICA8bGluZWFyR3JhZGllbnQgZ3JhZGllbnRUcmFuc2Zvcm09Im1hdHJpeCgzLjE1MDA0ZS0xNCwtNTE0LjQ0LDUxNC40NCwzLjE1MDA0ZS0xNCwzOTcuNCw1MTQuNDQpIiBncmFkaWVudFVuaXRzPSJ1c2VyU3BhY2VPblVzZSIgeTI9IjAiIHgyPSIxIiB5MT0iMCIgeDE9IjAiIGlkPSJfTGluZWFyMSI+PHN0b3Agc3R5bGU9InN0b3AtY29sb3I6cmdiKDEzNCwyNSwxNDMpO3N0b3Atb3BhY2l0eToxIiBvZmZzZXQ9IjAiLz48c3RvcCBzdHlsZT0ic3RvcC1jb2xvcjpyZ2IoMTM0LDI1LDE0Myk7c3RvcC1vcGFjaXR5OjEiIG9mZnNldD0iMSIvPjwvbGluZWFyR3JhZGllbnQ+JiN4YTsgICAgICAgIDxsaW5lYXJHcmFkaWVudCBncmFkaWVudFRyYW5zZm9ybT0ibWF0cml4KDMuMTIzMDllLTE0LC01MTAuMDQsNTEwLjA0LDMuMTIzMDllLTE0LDI2NC45LDU4Ni41NCkiIGdyYWRpZW50VW5pdHM9InVzZXJTcGFjZU9uVXNlIiB5Mj0iMCIgeDI9IjEiIHkxPSIwIiB4MT0iMCIgaWQ9Il9MaW5lYXIyIj48c3RvcCBzdHlsZT0ic3RvcC1jb2xvcjpyZ2IoMTkyLDM4LDIxMSk7c3RvcC1vcGFjaXR5OjEiIG9mZnNldD0iMCIvPjxzdG9wIHN0eWxlPSJzdG9wLWNvbG9yOnJnYigyMTcsNzAsMjM5KTtzdG9wLW9wYWNpdHk6MSIgb2Zmc2V0PSIxIi8+PC9saW5lYXJHcmFkaWVudD4mI3hhOyAgICAgICAgPGxpbmVhckdyYWRpZW50IGdyYWRpZW50VHJhbnNmb3JtPSJtYXRyaXgoMi42NTUyOGUtMTQsLTQzMy42NCw0MzMuNjQsMi42NTUyOGUtMTQsMTMyLjUsNTg2LjY0KSIgZ3JhZGllbnRVbml0cz0idXNlclNwYWNlT25Vc2UiIHkyPSIwIiB4Mj0iMSIgeTE9IjAiIHgxPSIwIiBpZD0iX0xpbmVhcjMiPjxzdG9wIHN0eWxlPSJzdG9wLWNvbG9yOnJnYigyMTcsNzAsMjM5KTtzdG9wLW9wYWNpdHk6MSIgb2Zmc2V0PSIwIi8+PHN0b3Agc3R5bGU9InN0b3AtY29sb3I6cmdiKDIyOSwxMTIsMjQ3KTtzdG9wLW9wYWNpdHk6MSIgb2Zmc2V0PSIwLjM5Ii8+PHN0b3Agc3R5bGU9InN0b3AtY29sb3I6cmdiKDIzMiwxMjEsMjQ5KTtzdG9wLW9wYWNpdHk6MSIgb2Zmc2V0PSIxIi8+PC9saW5lYXJHcmFkaWVudD4mI3hhOyAgICA8L2RlZnM+JiN4YTs8L3N2Zz4=;" vertex="1" parent="AiJdHj6Q9A8rBBn62U_L-1">
          <mxGeometry x="-274.31999999999994" y="94.51999999999998" width="21.65" height="24" as="geometry" />
        </mxCell>
        <mxCell id="t2mjKf7Wqyq2umgK_dD0-90" value="" style="rounded=1;whiteSpace=wrap;html=1;fontFamily=Courier New;fontSize=14;" vertex="1" parent="AiJdHj6Q9A8rBBn62U_L-1">
          <mxGeometry x="-288.51" y="144.62" width="48" height="50" as="geometry" />
        </mxCell>
        <mxCell id="t2mjKf7Wqyq2umgK_dD0-91" value="&lt;font face=&quot;Architects Daughter&quot;&gt;Local Files&lt;/font&gt;" style="text;html=1;strokeColor=none;fillColor=none;align=center;verticalAlign=middle;whiteSpace=wrap;rounded=0;fontFamily=Courier New;fontSize=8;" vertex="1" parent="AiJdHj6Q9A8rBBn62U_L-1">
          <mxGeometry x="-289.51" y="177.76" width="50" height="13" as="geometry" />
        </mxCell>
        <mxCell id="t2mjKf7Wqyq2umgK_dD0-92" value="" style="shape=image;verticalLabelPosition=bottom;labelBackgroundColor=default;verticalAlign=top;aspect=fixed;imageAspect=0;image=data:image/svg+xml,PHN2ZyB4bWxucz0iaHR0cDovL3d3dy53My5vcmcvMjAwMC9zdmciIHZpZXdCb3g9IjIgMCAyMCAyNCIgd2lkdGg9IjIwIiBoZWlnaHQ9IjI0Ij48cGF0aCBkPSJNMTYgMEg4QzYuOSAwIDYgLjkgNiAyVjE4QzYgMTkuMSA2LjkgMjAgOCAyMEgyMEMyMS4xIDIwIDIyIDE5LjEgMjIgMThWNkwxNiAwTTIwIDE4SDhWMkgxNVY3SDIwVjE4TTQgNFYyMkgyMFYyNEg0QzIuOSAyNCAyIDIzLjEgMiAyMlY0SDRNMTAgMTBWMTJIMThWMTBIMTBNMTAgMTRWMTZIMTVWMTRIMTBaIi8+PC9zdmc+;" vertex="1" parent="AiJdHj6Q9A8rBBn62U_L-1">
          <mxGeometry x="-274.44000000000005" y="149.22000000000003" width="19.86" height="24" as="geometry" />
        </mxCell>
        <mxCell id="t2mjKf7Wqyq2umgK_dD0-165" value="" style="rounded=1;whiteSpace=wrap;html=1;fontFamily=Courier New;fontSize=14;" vertex="1" parent="AiJdHj6Q9A8rBBn62U_L-1">
          <mxGeometry x="-232.5" y="88.38" width="48" height="50" as="geometry" />
        </mxCell>
        <mxCell id="t2mjKf7Wqyq2umgK_dD0-166" value="&lt;font face=&quot;Architects Daughter&quot;&gt;...&lt;/font&gt;" style="text;html=1;strokeColor=none;fillColor=none;align=center;verticalAlign=middle;whiteSpace=wrap;rounded=0;fontFamily=Courier New;fontSize=8;" vertex="1" parent="AiJdHj6Q9A8rBBn62U_L-1">
          <mxGeometry x="-233.5" y="121.51999999999998" width="50" height="13" as="geometry" />
        </mxCell>
        <mxCell id="t2mjKf7Wqyq2umgK_dD0-209" value="&lt;font&gt;github.com/datacontract/dataproduct-mcp&lt;/font&gt;" style="edgeLabel;html=1;align=center;verticalAlign=middle;resizable=0;points=[];fontFamily=Architects Daughter;fontSource=https%3A%2F%2Ffonts.googleapis.com%2Fcss%3Ffamily%3DArchitects%2BDaughter;" vertex="1" connectable="0" parent="AiJdHj6Q9A8rBBn62U_L-1">
          <mxGeometry x="-253" y="470.0028571428571" as="geometry" />
        </mxCell>
        <mxCell id="t2mjKf7Wqyq2umgK_dD0-210" value="" style="shape=image;verticalLabelPosition=bottom;labelBackgroundColor=default;verticalAlign=top;aspect=fixed;imageAspect=0;image=https://github.githubassets.com/assets/GitHub-Mark-ea2971cee799.png;" vertex="1" parent="AiJdHj6Q9A8rBBn62U_L-1">
          <mxGeometry x="-383.63" y="460" width="20" height="20" as="geometry" />
        </mxCell>
        <mxCell id="t2mjKf7Wqyq2umgK_dD0-215" value="" style="endArrow=classic;html=1;rounded=0;startArrow=none;entryX=0.563;entryY=0.256;entryDx=0;entryDy=0;entryPerimeter=0;" edge="1" parent="AiJdHj6Q9A8rBBn62U_L-1">
          <mxGeometry width="50" height="50" relative="1" as="geometry">
            <mxPoint x="-431.82" y="194.62" as="sourcePoint" />
            <mxPoint x="-386.6400000000001" y="164.70000000000016" as="targetPoint" />
            <Array as="points">
              <mxPoint x="-432" y="194.62" />
            </Array>
          </mxGeometry>
        </mxCell>
        <mxCell id="t2mjKf7Wqyq2umgK_dD0-216" value="Find&lt;br&gt;- Data Products&lt;div&gt;- Data Contracts&lt;/div&gt;" style="edgeLabel;html=1;align=center;verticalAlign=middle;resizable=0;points=[];fontSize=11;fontFamily=Architects Daughter;" vertex="1" connectable="0" parent="t2mjKf7Wqyq2umgK_dD0-215">
          <mxGeometry x="-0.175" relative="1" as="geometry">
            <mxPoint x="-54" y="-32" as="offset" />
          </mxGeometry>
        </mxCell>
        <mxCell id="t2mjKf7Wqyq2umgK_dD0-221" value="" style="endArrow=classic;html=1;rounded=0;startArrow=none;entryX=0.563;entryY=0.256;entryDx=0;entryDy=0;entryPerimeter=0;" edge="1" parent="AiJdHj6Q9A8rBBn62U_L-1">
          <mxGeometry width="50" height="50" relative="1" as="geometry">
            <mxPoint x="-431.82" y="310.00000000000006" as="sourcePoint" />
            <mxPoint x="-386.6400000000001" y="339.9199999999999" as="targetPoint" />
            <Array as="points">
              <mxPoint x="-432" y="310.00000000000006" />
            </Array>
          </mxGeometry>
        </mxCell>
        <mxCell id="t2mjKf7Wqyq2umgK_dD0-222" value="Data Queries" style="edgeLabel;html=1;align=center;verticalAlign=middle;resizable=0;points=[];fontSize=11;fontFamily=Architects Daughter;" vertex="1" connectable="0" parent="t2mjKf7Wqyq2umgK_dD0-221">
          <mxGeometry x="-0.175" relative="1" as="geometry">
            <mxPoint x="-44" y="20" as="offset" />
          </mxGeometry>
        </mxCell>
        <mxCell id="t2mjKf7Wqyq2umgK_dD0-225" value="&lt;span style=&quot;font-size: 11px;&quot;&gt;data sources&lt;/span&gt;" style="edgeLabel;html=1;align=center;verticalAlign=middle;resizable=0;points=[];fontFamily=Architects Daughter;fontSource=https%3A%2F%2Ffonts.googleapis.com%2Fcss%3Ffamily%3DArchitects%2BDaughter;fontSize=11;fontColor=#B85450;" vertex="1" connectable="0" parent="AiJdHj6Q9A8rBBn62U_L-1">
          <mxGeometry x="-240.5128571428574" y="441" as="geometry" />
        </mxCell>
      </root>
    </mxGraphModel>
  </diagram>
</mxfile>
